<svg xmlns="http://www.w3.org/2000/svg" width="59" height="65" fill="none"><path fill="#FBBF09" d="M30.793 57.38v7.029c1.1-.183 2.2-.548 3.116-1.096l20.254-11.501c2.84-1.643 4.582-4.564 4.582-7.85V21.05a8.7 8.7 0 0 0-.55-3.012l-6.14 3.56L35.1 31.273c-3.482 2.465-4.215 4.747-4.307 7.485z"/><path fill="#00A275" d="m50.68 19.133 6.14-3.56c-.733-1.004-1.65-1.825-2.657-2.373L33.909 1.698c-2.841-1.643-6.324-1.551-9.073 0L4.674 13.2a8.9 8.9 0 0 0-2.75 2.464l6.14 3.56L25.02 28.9c2.016 1.278 3.391 2.556 4.308 4.017.916-1.46 2.29-2.739 4.307-4.017z"/><path fill="#EB8A04" d="M6.782 21.689.55 18.129a7.9 7.9 0 0 0-.55 2.92v23.004c0 3.195 1.741 6.207 4.582 7.85l20.162 11.502c.917.547 2.017.912 3.116 1.095V38.759c-.091-2.739-.824-5.02-4.307-7.486z"/><path fill="#F5EA64" d="m58.196 18.038-6.14 3.56c.183.639.366 1.369.366 2.1v17.708c0 2.556-1.375 5.02-3.666 6.298l-15.58 8.854a9.8 9.8 0 0 1-2.29.822v7.029c1.099-.183 2.199-.548 3.115-1.096l20.162-11.501c2.841-1.643 4.583-4.564 4.583-7.85V21.05a8.7 8.7 0 0 0-.55-3.012"/><path fill="#48C0ED" d="M10.173 17.399 25.66 8.544c2.29-1.278 5.132-1.278 7.331 0l15.58 8.855c.825.456 1.466 1.095 2.016 1.734l6.14-3.56c-.733-1.004-1.649-1.825-2.657-2.373L33.909 1.698c-2.841-1.643-6.324-1.551-9.073 0L4.674 13.2a8.9 8.9 0 0 0-2.75 2.464l6.14 3.56c.642-.73 1.284-1.369 2.108-1.825"/><path fill="#FDD657" d="m25.66 56.559-15.487-8.855c-2.291-1.278-3.666-3.742-3.666-6.298V23.697c0-.73.092-1.37.275-2.008L.55 18.129a7.9 7.9 0 0 0-.55 2.92v23.004c0 3.195 1.741 6.207 4.582 7.85l20.162 11.502c.917.547 2.017.912 3.116 1.095v-7.029c-.733-.274-1.466-.547-2.2-.912"/></svg>